<svg xmlns="http://www.w3.org/2000/svg" fill="none" viewBox="0 0 64 64" id="Bun--Streamline-Svg-Logos" height="64" width="64">
  <desc>
    Bun Streamline Icon: https://streamlinehq.com
  </desc>
  <path fill="#000000" d="M56.66193333333334 20.589199999999998c-0.12693333333333334 -0.13486666666666666 -0.2618 -0.2697333333333333 -0.3966666666666666 -0.39659999999999995 -0.13479999999999998 -0.12693333333333334 -0.2617333333333333 -0.2697333333333333 -0.39659999999999995 -0.3966666666666666 -0.13486666666666666 -0.12693333333333334 -0.2617333333333333 -0.26966666666666667 -0.39659999999999995 -0.39659999999999995 -0.13486666666666666 -0.12693333333333334 -0.2618 -0.2697333333333333 -0.3966666666666666 -0.3966666666666666 -0.13479999999999998 -0.12686666666666666 -0.2617333333333333 -0.26966666666666667 -0.39659999999999995 -0.39659999999999995 -0.13486666666666666 -0.12693333333333334 -0.2618 -0.26966666666666667 -0.39659999999999995 -0.39659999999999995 -0.13486666666666666 -0.12693333333333334 -0.2618 -0.2697333333333333 -0.3966666666666666 -0.3966666666666666 3.9346666666666668 3.8668666666666667 6.1887333333333325 9.127333333333333 6.2745999999999995 14.6434 0 13.144133333333333 -13.3424 23.83713333333333 -29.746799999999997 23.83713333333333 -9.185866666666666 0 -17.40393333333333 -3.3554666666666666 -22.8694 -8.614666666666666l0.3966666666666666 0.39659999999999995 0.39659999999999995 0.3966666666666666 0.39659999999999995 0.39659999999999995 0.3966666666666666 0.39659999999999995 0.39659999999999995 0.3966666666666666 0.39659999999999995 0.39659999999999995 0.3966666666666666 0.39659999999999995c5.457533333333332 5.481399999999999 13.858066666666666 9.011333333333333 23.266 9.011333333333333 16.404333333333334 0 29.746799999999997 -10.693 29.746799999999997 -23.797466666666665 0 -5.6003333333333325 -2.4114666666666666 -10.9072 -6.6712 -15.079666666666665Z" stroke-width="0.6667"></path>
  <path fill="#fbf0df" d="M58.17713333333333 32.456199999999995c0 12.065266666666666 -12.4302 21.846066666666665 -27.763666666666666 21.846066666666665 -15.333533333333332 0 -27.763726666666663 -9.7808 -27.763726666666663 -21.846066666666665 0 -7.480333333333332 4.75946 -14.088133333333333 12.07326 -18.0068C22.036733333333334 10.5308 26.589999999999996 6.5169266666666665 30.413466666666665 6.5169266666666665c3.8234666666666666 0 7.0916 3.27614 15.690466666666666 7.932473333333332 7.3137333333333325 3.9186666666666667 12.0732 10.526466666666666 12.0732 18.0068Z" stroke-width="0.6667"></path>
  <path fill="#f6dece" d="M58.17713333333333 32.456066666666665c-0.0038666666666666663 -1.5499333333333332 -0.21733333333333332 -3.0922666666666663 -0.6345999999999999 -4.585 -2.1656 26.4152 -34.3874 27.6844 -47.05553333333333 19.783666666666665 5.694733333333333 4.413933333333333 12.7222 6.758266666666666 19.9264 6.647399999999999 15.309733333333334 0 27.763733333333334 -9.7966 27.763733333333334 -21.846066666666665Z" stroke-width="0.6667"></path>
  <path fill="#fffefc" d="M19.7284 12.9978c3.5458 -2.1259333333333332 8.257733333333332 -6.116 12.890266666666665 -6.1239333333333335 -0.7126666666666666 -0.23034 -1.4562666666666666 -0.3507066666666666 -2.2051999999999996 -0.35694000000000004 -1.9196666666666666 0 -3.9662666666666664 0.9915399999999999 -6.5443333333333324 2.482873333333333 -0.8963333333333333 0.5235333333333333 -1.8244666666666665 1.1025999999999998 -2.808066666666667 1.7054666666666665 -1.8482666666666667 1.1422666666666665 -3.9662666666666664 2.4352666666666662 -6.346 3.7282666666666664C7.163333333333332 18.5188 2.64974 25.253466666666668 2.64974 32.456199999999995l0 0.9439333333333333C7.456799999999999 16.416666666666664 16.190466666666666 15.123666666666667 19.7284 12.9978Z" stroke-width="0.6667"></path>
  <path fill="#ccbea7" d="M28.129266666666666 8.523933333333332c0.022466666666666666 3.7902666666666662 -1.6082 7.401999999999999 -4.465999999999999 9.891866666666665 -0.22213333333333332 0.19826666666666665 -0.0476 0.5790666666666666 0.238 0.46799999999999997 2.6732 -1.0391333333333332 6.282533333333333 -4.148666666666666 4.7594666666666665 -10.423266666666667 -0.06346666666666667 -0.357 -0.5314666666666666 -0.2618 -0.5314666666666666 0.0634Zm1.8006666666666666 0c1.9642 3.2047999999999996 2.4306666666666663 7.107666666666667 1.2771333333333332 10.685066666666666 -0.0952 0.2776666666666666 0.24593333333333334 0.5156666666666666 0.43626666666666664 0.28559999999999997 1.7372666666666667 -2.2211333333333334 3.252333333333333 -6.6315333333333335 -1.2850666666666666 -11.391066666666667 -0.22999999999999998 -0.20626666666666665 -0.587 0.11106666666666666 -0.4283333333333333 0.3886666666666666v0.031733333333333336Zm2.189333333333333 -0.13479999999999998c3.0753333333333335 2.1772 5.057133333333333 5.579466666666666 5.4338 9.3286 -0.016666666666666666 0.13866666666666666 0.07846666666666666 0.2660666666666667 0.21619999999999998 0.28933333333333333 0.13773333333333332 0.023333333333333334 0.2695333333333333 -0.06559999999999999 0.2994 -0.20206666666666664 0.7298 -2.768466666666667 0.3173333333333333 -7.488266666666666 -5.6876 -9.939466666666666 -0.31726666666666664 -0.12686666666666666 -0.5235333333333333 0.30146666666666666 -0.2618 0.4918666666666667v0.031733333333333336Zm-14.643333333333333 8.249733333333332c3.6565999999999996 -1.0924 6.676266666666667 -3.6880666666666664 8.305333333333333 -7.1392 0.14273333333333332 -0.28559999999999997 0.5949333333333333 -0.17453333333333332 0.5235333333333333 0.14279999999999998 -1.3723333333333332 6.346 -5.9652666666666665 7.6706666666666665 -8.820933333333333 7.4962 -0.30146666666666666 0.007933333333333334 -0.2935333333333333 -0.4125333333333333 -0.007933333333333334 -0.4998Z" stroke-width="0.6667"></path>
  <path fill="#000000" d="M30.413533333333334 56.29333333333333C14.009133333333333 56.29333333333333 0.6666666666666666 45.600333333333325 0.6666666666666666 32.456199999999995c0 -7.9324666666666666 4.902279999999999 -15.333466666666666 13.112400000000001 -19.767733333333332 2.3797333333333333 -1.2691999999999999 4.4184 -2.546333333333333 6.234933333333332 -3.6648 0.9995333333333334 -0.6187333333333334 1.9434666666666667 -1.1978 2.8557333333333332 -1.7372666666666667 2.7842666666666664 -1.6499266666666665 5.164 -2.7525466666666665 7.543799999999999 -2.7525466666666665 2.3797333333333333 0 4.458 0.9519 7.059866666666666 2.490813333333333 0.7932666666666666 0.45213333333333333 1.5865333333333331 0.9439333333333333 2.4352666666666662 1.4833333333333334 1.9752 1.2216666666666667 4.204266666666666 2.6018666666666665 7.139266666666666 4.180466666666666 8.210133333333333 4.434266666666666 13.112400000000001 11.827333333333332 13.112400000000001 19.767733333333332 0 13.144133333333333 -13.342466666666667 23.83713333333333 -29.746799999999997 23.83713333333333Zm0 -49.77635333333333c-1.9196666666666666 0 -3.9662666666666664 0.9915533333333333 -6.5443333333333324 2.4828866666666665 -0.8964 0.5235333333333333 -1.8244666666666665 1.1025999999999998 -2.808133333333333 1.7054666666666665 -1.8482666666666667 1.1422666666666665 -3.9661999999999997 2.4352666666666662 -6.345933333333333 3.7282666666666664C7.1634 18.518866666666668 2.6497866666666665 25.25353333333333 2.6497866666666665 32.456199999999995c0 12.049466666666667 12.454013333333332 21.854066666666668 27.763746666666666 21.854066666666668 15.309666666666667 0 27.763666666666666 -9.804599999999999 27.763666666666666 -21.854066666666668 0 -7.2026666666666666 -4.5136 -13.937333333333331 -12.0732 -18.006733333333333 -2.998533333333333 -1.5864666666666667 -5.3386 -3.0778 -7.234466666666666 -4.251799999999999 -0.8646666666666666 -0.5314666666666666 -1.6578666666666666 -1.0233333333333332 -2.3797333333333333 -1.4596 -2.4035333333333333 -1.4278666666666666 -4.156599999999999 -2.2210866666666664 -6.076266666666666 -2.2210866666666664Z" stroke-width="0.6667"></path>
  <path fill="#b71422" d="M36.00546666666666 38.24693333333333c-0.3563333333333333 1.4595333333333331 -1.1674666666666667 2.7679333333333336 -2.3162666666666665 3.7362 -0.8624666666666667 0.836 -1.9789333333333332 1.3607999999999998 -3.173 1.4912666666666665 -1.2299333333333333 -0.10980000000000001 -2.3855999999999997 -0.6358666666666666 -3.276133333333333 -1.4912666666666665 -1.137 -0.9728666666666667 -1.9367333333333332 -2.2807999999999997 -2.284533333333333 -3.7362 -0.023333333333333334 -0.1751333333333333 0.035666666666666666 -0.3512 0.1598 -0.47686666666666666s0.2994 -0.18686666666666665 0.4748 -0.16566666666666666h9.788666666666666c0.1741333333333333 -0.018533333333333332 0.34706666666666663 0.04379999999999999 0.46933333333333327 0.1691333333333333 0.12219999999999999 0.12533333333333332 0.18019999999999997 0.29979999999999996 0.15733333333333333 0.47339999999999993Z" stroke-width="0.6667"></path>
  <path fill="#ff6164" d="M27.240466666666666 42.04673333333333c0.8887333333333333 0.8559333333333333 2.0401999999999996 1.3869333333333334 3.2682 1.5072 1.2251333333333332 -0.122 2.3735999999999997 -0.6528666666666666 3.2601999999999998 -1.5072 0.2836666666666666 -0.2643333333333333 0.5486666666666666 -0.5479333333333333 0.7932666666666666 -0.8488 -0.9876666666666667 -1.1204666666666667 -2.3940666666666663 -1.7834666666666665 -3.8869333333333334 -1.8324 -1.6042666666666667 0.038 -3.0873333333333335 0.8626 -3.9661999999999997 2.2052666666666667 0.1824 0.1666 0.3410666666666667 0.3252 0.5314666666666666 0.4759333333333333Z" stroke-width="0.6667"></path>
  <path fill="#000000" d="M27.367399999999996 41.420199999999994c0.7968 -1.0299333333333331 2.0216 -1.6379333333333332 3.323733333333333 -1.6499333333333333 1.1879333333333333 0.034999999999999996 2.3198 0.5132666666666666 3.173 1.3405999999999998 0.1824 -0.1983333333333333 0.3569333333333333 -0.40459999999999996 0.5235333333333333 -0.6108 -1.0091999999999999 -0.9611333333333333 -2.3428 -1.5076 -3.7362 -1.531 -1.5077999999999998 0.013 -2.930733333333333 0.6997333333333333 -3.879 1.8720666666666665 0.18753333333333333 0.2038 0.38613333333333333 0.39713333333333334 0.5949333333333333 0.5790666666666666Z" stroke-width="0.6667"></path>
  <path fill="#000000" d="M30.484933333333334 43.950599999999994c-1.3218666666666665 -0.11579999999999999 -2.5658 -0.6749333333333333 -3.529933333333333 -1.5865333333333331 -1.2279333333333333 -1.0385333333333333 -2.0922 -2.441933333333333 -2.4669999999999996 -4.005866666666666 -0.05446666666666666 -0.282 0.021333333333333333 -0.5735333333333332 0.2062 -0.7932666666666666 0.22033333333333333 -0.266 0.5511333333333333 -0.41533333333333333 0.8964 -0.4045333333333333h9.788666666666666c0.34453333333333336 -0.007266666666666666 0.6739333333333333 0.1414 0.8964 0.4045333333333333 0.18313333333333331 0.22060000000000002 0.25606666666666666 0.5124666666666666 0.19826666666666665 0.7932666666666666 -0.3748 1.5639333333333332 -1.2390666666666665 2.967333333333333 -2.4669999999999996 4.005866666666666 -0.9620666666666666 0.9099999999999999 -2.202933333333333 1.4689333333333332 -3.5220000000000002 1.5865333333333331Zm-4.894333333333333 -5.870066666666666c-0.12693333333333334 0 -0.15866666666666665 0.05553333333333333 -0.1666 0.07139999999999999 0.3353333333333333 1.3561999999999999 1.0937999999999999 2.5704 2.1656 3.466533333333333 0.7836666666666666 0.7720666666666666 1.8026 1.2606 2.8953333333333333 1.3881333333333332 1.0899333333333332 -0.12606666666666666 2.107666666666667 -0.6084666666666666 2.8953333333333333 -1.3722666666666665 1.0684 -0.8976666666666666 1.824 -2.1116 2.1576666666666666 -3.466533333333333 -0.03526666666666667 -0.05173333333333333 -0.09653333333333333 -0.07926666666666667 -0.15866666666666665 -0.07139999999999999l-9.788666666666666 -0.015866666666666668Z" stroke-width="0.6667"></path>
  <path fill="#febbd0" d="M42.48653333333333 38.7388c2.5628666666666664 0 4.640533333333333 -1.2217333333333333 4.640533333333333 -2.7288s-2.0776666666666666 -2.728733333333333 -4.640533333333333 -2.728733333333333 -4.640533333333333 1.2216666666666667 -4.640533333333333 2.728733333333333c0 1.5070666666666668 2.0776666666666666 2.7288 4.640533333333333 2.7288Z" stroke-width="0.6667"></path>
  <path fill="#febbd0" d="M18.475133333333332 38.7388c2.5628666666666664 0 4.640533333333333 -1.2217333333333333 4.640533333333333 -2.7288s-2.0776666666666666 -2.728733333333333 -4.640533333333333 -2.728733333333333 -4.640466666666667 1.2216666666666667 -4.640466666666667 2.728733333333333c0 1.5070666666666668 2.0776 2.7288 4.640466666666667 2.7288Z" stroke-width="0.6667"></path>
  <path fill="#000000" d="M20.655866666666665 34.91526666666667c1.7685333333333333 0.0031999999999999997 3.3647333333333336 -1.0597333333333332 4.043733333333333 -2.6927333333333334 0.6789999999999999 -1.633 0.307 -3.5141999999999998 -0.9423999999999999 -4.765933333333333 -1.2494 -1.2516666666666665 -3.13 -1.6270666666666664 -4.7642 -0.9510000000000001 -1.6342666666666665 0.6759999999999999 -2.6999999999999997 2.2702666666666667 -2.6999999999999997 4.0388 0 2.4108666666666663 1.952 4.366466666666666 4.362866666666666 4.370866666666666Zm19.648733333333332 -0.00006666666666666667c1.7706666666666666 0.012866666666666667 3.3741333333333334 -1.0438666666666667 4.060666666666666 -2.6760666666666664 0.6865333333333333 -1.6322 0.3204666666666667 -3.517333333333333 -0.9270666666666667 -4.773933333333333 -1.2474666666666665 -1.2566 -3.129933333333333 -1.6364 -4.767066666666667 -0.9618s-2.7055999999999996 2.2703333333333333 -2.7055999999999996 4.0409999999999995c-0.004399999999999999 2.4034 1.9357333333333333 4.357733333333333 4.339066666666667 4.370799999999999Z" stroke-width="0.6667"></path>
  <path fill="#ffffff" d="M19.3076 30.821866666666665c0.6648666666666666 0.0031999999999999997 1.266 -0.3948666666666667 1.5226666666666664 -1.0081333333333333 0.25666666666666665 -0.6133333333333333 0.11813333333333333 -1.3209333333333333 -0.35086666666666666 -1.7921999999999998 -0.4689333333333333 -0.4712666666666666 -1.1758666666666666 -0.6132 -1.7904 -0.35946666666666666 -0.6145333333333333 0.25366666666666665 -1.0154666666666667 0.8528666666666667 -1.0154666666666667 1.5177333333333334 0 0.9037999999999999 0.7302666666666666 1.6376666666666666 1.6340666666666666 1.6420666666666666Zm19.648799999999998 0c0.6648 0.0031999999999999997 1.266 -0.3948666666666667 1.5226666666666664 -1.0081333333333333 0.25666666666666665 -0.6133333333333333 0.11813333333333333 -1.3209333333333333 -0.35086666666666666 -1.7921999999999998 -0.469 -0.4712666666666666 -1.1758666666666666 -0.6132 -1.7904 -0.35946666666666666 -0.6146 0.25366666666666665 -1.0155333333333334 0.8528666666666667 -1.0155333333333334 1.5177333333333334 -0.00006666666666666667 0.8976666666666666 0.7206666666666666 1.6289999999999998 1.6182666666666665 1.6420666666666666h0.015866666666666668Z" stroke-width="0.6667"></path>
</svg>