<svg xmlns="http://www.w3.org/2000/svg" fill="none" viewBox="0 0 32 32" id="Playwright--Streamline-Svg-Logos" height="32" width="32">
  <desc>
    Playwright Streamline Icon: https://streamlinehq.com
  </desc>
  <path fill="#2d4552" d="M10.661133333333332 17.522299999999998c-1.1696666666666666 0.33196666666666663 -1.9370333333333332 0.9139666666666666 -2.4425333333333334 1.4955333333333334 0.48416666666666663 -0.42369999999999997 1.1326999999999998 -0.8125666666666667 2.0075666666666665 -1.0605666666666667 0.8948 -0.2536 1.6581666666666666 -0.25176666666666664 2.288933333333333 -0.13006666666666666v-0.4932333333333333c-0.5380666666666667 -0.0492 -1.1549666666666667 -0.009999999999999998 -1.8539666666666665 0.1883333333333333Zm-2.496 -4.146366666666666 -4.343933333333333 1.1444333333333332s0.07916666666666666 0.11183333333333334 0.22573333333333334 0.26103333333333334l3.683133333333333 -0.9705s-0.052199999999999996 0.6725333333333332 -0.5054333333333333 1.2741333333333333c0.8573333333333333 -0.6486333333333333 0.9404999999999999 -1.7090999999999998 0.9404999999999999 -1.7090999999999998Zm3.6361666666666665 10.209C5.688199999999999 25.23143333333333 2.4539766666666667 18.147 1.4747833333333331 14.469899999999999c-0.45239999999999997 -1.6973333333333331 -0.6498866666666666 -2.9827999999999997 -0.7025233333333333 -3.8123666666666662 -0.005656666666666666 -0.08613333333333334 -0.003043333333333333 -0.15873333333333334 0.0030466666666666667 -0.22526666666666664 -0.3171133333333333 0.019133333333333332 -0.4689353333333333 0.18396666666666664 -0.4380466666666667 0.6603333333333333 0.052636666666666665 0.8291 0.25012666666666666 2.1144999999999996 0.7025266666666666 3.8123666666666662C2.018543333333333 18.5815 5.2532 25.66593333333333 11.366333333333332 24.019466666666666c1.3306 -0.3584666666666666 2.330233333333333 -1.0113666666666665 3.080633333333333 -1.8448333333333333 -0.6916666666666667 0.6247 -1.5573333333333332 1.1166666666666667 -2.6456666666666666 1.4102999999999999Zm1.1487666666666665 -14.544733333333333v0.4350666666666666h2.3977999999999997c-0.0492 -0.15403333333333333 -0.09876666666666667 -0.2928333333333333 -0.14796666666666666 -0.4350666666666666h-2.249833333333333Z" stroke-width="0.3333"></path>
  <path fill="#2d4552" d="M15.883866666666666 12.623133333333332c1.0783333333333331 0.3062333333333333 1.6486666666666665 1.0622666666666665 1.9501 1.7313333333333332l1.2023333333333333 0.34146666666666664s-0.16399999999999998 -2.3415666666666666 -2.282033333333333 -2.9431999999999996c-1.9814333333333334 -0.5629666666666666 -3.2007666666666665 1.1009333333333333 -3.3490666666666664 1.3162666666666665 0.5764 -0.4106666666666666 1.4181 -0.7468666666666667 2.4786666666666664 -0.44586666666666663Zm9.5709 1.7421333333333333c-1.9832333333333332 -0.5654999999999999 -3.2020999999999997 1.1018666666666665 -3.3482333333333334 1.3141666666666665 0.5768333333333333 -0.4101666666666666 1.4181 -0.7464999999999999 2.4781999999999997 -0.4441333333333333 1.0766 0.3067333333333333 1.6464666666666665 1.0618333333333334 1.9488333333333332 1.7313666666666665l1.2040666666666666 0.34273333333333333s-0.16666666666666666 -2.342033333333333 -2.2828666666666666 -2.9441333333333333Zm-1.1945333333333332 6.1739999999999995 -10.001966666666666 -2.7961666666666667s0.10826666666666665 0.5489666666666666 0.5237333333333333 1.2597999999999998l8.421199999999999 2.354233333333333c0.6932999999999999 -0.40113333333333334 1.0570333333333333 -0.8178666666666665 1.0570333333333333 -0.8178666666666665ZM17.325833333333332 26.557966666666665C9.406233333333333 24.434666666666665 10.363666666666667 14.344033333333332 11.645166666666665 9.562433333333333c0.5276333333333333 -1.9705333333333332 1.0701 -3.4351666666666665 1.5199333333333334 -4.416966666666666 -0.26839999999999997 -0.05523333333333333 -0.49069999999999997 0.08613333333333334 -0.7103666666666666 0.5328666666666666 -0.47763333333333335 0.9687666666666666 -1.0884 2.5460666666666665 -1.6795 4.754133333333333 -1.2811333333333332 4.781499999999999 -2.2386 14.8718 5.680666666666667 16.9951 3.732733333333333 1 6.640633333333334 -0.5198666666666667 8.808333333333334 -2.9067333333333334 -2.0575666666666663 1.8636 -4.684566666666666 2.9084333333333334 -7.9384 2.0371333333333332Z" stroke-width="0.3333"></path>
  <path fill="#e2574c" d="M12.950133333333333 21.220233333333333V19.183999999999997l-5.657566666666666 1.6042666666666667s0.4180333333333333 -2.429 3.3686333333333334 -3.266c0.8948 -0.2536 1.6582666666666666 -0.2518666666666667 2.288933333333333 -0.13006666666666666V9.040166666666666h2.8327666666666667c-0.30843333333333334 -0.9531000000000001 -0.6068 -1.6868666666666665 -0.8573999999999999 -2.1967333333333334 -0.41456666666666664 -0.8438999999999999 -0.8395333333333334 -0.28446666666666665 -1.8043333333333333 0.5224666666666666 -0.6795333333333333 0.5677 -2.3968999999999996 1.7787333333333333 -4.981199999999999 2.475133333333333 -2.5843666666666665 0.6968333333333333 -4.673666666666667 0.5120333333333333 -5.545413333333333 0.36106666666666665 -1.2358433333333334 -0.21319999999999997 -1.8822566666666667 -0.4846 -1.8217833333333333 0.4554 0.05262666666666666 0.8291 0.25012666666666666 2.1146 0.7025233333333333 3.8123666666666662C2.454043333333333 18.1465 5.688699999999999 25.230933333333333 11.8018 23.584466666666664c1.596833333333333 -0.43026666666666663 2.723933333333333 -1.2807 3.5051999999999994 -2.3646666666666665h-2.3568666666666664v0.0004333333333333333ZM3.8208333333333333 14.520333333333333l4.344366666666666 -1.1444333333333332s-0.12663333333333332 1.6712666666666665 -1.7552666666666665 2.1006c-1.6290666666666667 0.42889999999999995 -2.5890999999999997 -0.9561666666666666 -2.5890999999999997 -0.9561666666666666Z" stroke-width="0.3333"></path>
  <path fill="#2ead33" d="M29.3001 9.136666666666667c-1.1292666666666666 0.19796666666666665 -3.8385 0.4446 -7.186633333333333 -0.4528333333333333 -3.3490666666666664 -0.8969 -5.571133333333333 -2.4655666666666667 -6.4515 -3.2029 -1.248 -1.0453 -1.7969666666666666 -1.7717666666666665 -2.3372333333333333 -0.6729333333333334 -0.47763333333333335 0.9691666666666667 -1.0884333333333331 2.5465 -1.6796333333333333 4.754566666666666 -1.2810333333333332 4.781499999999999 -2.2384666666666666 14.8718 5.6807 16.995066666666666 7.9175 2.1214999999999997 12.132599999999998 -7.096233333333332 13.413733333333333 -11.878166666666667 0.5912 -2.207633333333333 0.8504333333333333 -3.8793333333333333 0.9217666666666666 -4.957233333333333 0.08133333333333333 -1.2210333333333332 -0.7573666666666666 -0.8666 -2.3611999999999997 -0.5855666666666666ZM13.389066666666666 13.0926s1.248 -1.941 3.3646999999999996 -1.3394c2.118033333333333 0.6016333333333332 2.282033333333333 2.9432333333333336 2.282033333333333 2.9432333333333336l-5.646733333333334 -1.6038333333333332ZM18.555999999999997 21.802666666666667c-3.723133333333333 -1.0906333333333333 -4.297333333333333 -4.0595333333333325 -4.297333333333333 -4.0595333333333325l10.0015 2.7962666666666665c0 -0.00046666666666666666 -2.0187999999999997 2.340233333333333 -5.704166666666667 1.2632666666666665Zm3.536133333333333 -6.1014s1.2462666666666666 -1.9396666666666667 3.3625666666666665 -1.3363333333333334c2.116233333333333 0.6025333333333334 2.2828666666666666 2.9441333333333333 2.2828666666666666 2.9441333333333333l-5.645433333333333 -1.6078000000000001Z" stroke-width="0.3333"></path>
  <path fill="#d65348" d="M10.9732 19.744699999999998 7.292666666666666 20.78783333333333s0.3998 -2.277633333333333 3.111133333333333 -3.180233333333333l-2.0841 -7.821299999999999 -0.18009999999999998 0.054733333333333335c-2.5843333333333334 0.6969333333333334 -4.673633333333333 0.5120333333333333 -5.545373333333332 0.36106666666666665 -1.2358366666666667 -0.21309999999999998 -1.8822466666666666 -0.4846 -1.8217833333333333 0.4555 0.052636666666666665 0.8291 0.25012666666666666 2.1144999999999996 0.7025233333333333 3.812333333333333 0.9787566666666666 3.6765666666666665 4.213433333333333 10.761 10.3265 9.114533333333332l0.18009999999999998 -0.05656666666666666 -1.0083666666666666 -3.7832ZM3.820933333333333 14.520399999999999l4.344366666666666 -1.1444999999999999s-0.12663333333333332 1.6712666666666665 -1.7552333333333332 2.1006c-1.6290999999999998 0.42889999999999995 -2.5891333333333333 -0.9561 -2.5891333333333333 -0.9561Z" stroke-width="0.3333"></path>
  <path fill="#1d8d22" d="m18.72393333333333 21.8435 -0.1684 -0.040933333333333335c-3.7230999999999996 -1.0905333333333331 -4.297333333333333 -4.059433333333333 -4.297333333333333 -4.059433333333333l5.1574 1.4415999999999998 2.730433333333333 -10.4922 -0.03303333333333333 -0.0087c-3.3490666666666664 -0.8969 -5.571 -2.4655666666666667 -6.4515 -3.2029 -1.248 -1.0453 -1.7969666666666666 -1.7717666666666665 -2.3372333333333333 -0.6729333333333334 -0.47716666666666663 0.9691666666666667 -1.0879666666666665 2.5465 -1.6791666666666665 4.754566666666666 -1.2810333333333332 4.781499999999999 -2.2384666666666666 14.8718 5.6807 16.994999999999997l0.1623 0.036566666666666664 1.2358333333333333 -4.750633333333333ZM13.389066666666666 13.092633333333334s1.248 -1.9410333333333334 3.3646999999999996 -1.3394333333333333c2.118033333333333 0.6016333333333332 2.282033333333333 2.9432333333333336 2.282033333333333 2.9432333333333336l-5.646733333333334 -1.6038Z" stroke-width="0.3333"></path>
  <path fill="#c04b41" d="m11.160733333333333 19.691066666666664 -0.9870333333333333 0.28013333333333335c0.23316666666666666 1.3145333333333333 0.6441666666666667 2.5760666666666667 1.2893 3.690533333333333 0.11226666666666665 -0.024799999999999996 0.22363333333333335 -0.0461 0.33799999999999997 -0.07743333333333333 0.2997333333333333 -0.08086666666666667 0.5776666666666667 -0.181 0.8452666666666666 -0.2902 -0.7207999999999999 -1.0696333333333332 -1.1976333333333333 -2.3015666666666665 -1.4855333333333332 -3.6030333333333333Zm-0.38543333333333335 -9.258533333333332c-0.5072 1.8930999999999998 -0.9609666666666665 4.617933333333333 -0.8360666666666666 7.351 0.22356666666666664 -0.09703333333333333 0.4597333333333333 -0.18743333333333334 0.7220666666666666 -0.26186666666666664l0.18273333333333333 -0.04083333333333333c-0.22276666666666667 -2.919366666666667 0.25876666666666664 -5.894266666666667 0.8012333333333334 -7.918333333333333 0.13749999999999998 -0.5120333333333333 0.27536666666666665 -0.9883 0.41279999999999994 -1.4324666666666666 -0.22136666666666666 0.1409 -0.4597333333333333 0.2853 -0.7312333333333334 0.43406666666666666 -0.18309999999999998 0.5651333333333333 -0.368 1.1828333333333334 -0.5515333333333333 1.8684333333333332Z" stroke-width="0.3333"></path>
</svg>